HIERARCHY
ROOT Hips
{
	OFFSET -3.958830 18.904000 13.208200
	CHANNELS 6 Xposition Yposition Zposition Zrotation Yrotation Xrotation 
	JOINT LHipJoint
	{
		OFFSET 0.000000 0.000000 0.000000
		CHANNELS 3 Zrotation Yrotation Xrotation
		JOINT LeftUpLeg
		{
			OFFSET 1.800000 -1.400000 0.085000
			CHANNELS 3 Zrotation Yrotation Xrotation
			JOINT LeftLeg
			{
				OFFSET 2.215000 -6.000000 0.000000
				CHANNELS 3 Zrotation Yrotation Xrotation
				JOINT LeftFoot
				{
					OFFSET 2.500000 -6.900000 0.000000
					CHANNELS 3 Zrotation Yrotation Xrotation
					JOINT LeftToeBase
					{
						OFFSET 0.200000 -0.500000 1.950000
						CHANNELS 3 Zrotation Yrotation Xrotation
						End Site
						{
							OFFSET 0.000000 0.000000 0.000000
						}
					}
				}
			}
		}
	}
	JOINT RHipJoint
	{
		OFFSET 0.000000 0.000000 0.000000
		CHANNELS 3 Zrotation Yrotation Xrotation
		JOINT RightUpLeg
		{
			OFFSET -1.800000 -1.400000 0.085000
			CHANNELS 3 Zrotation Yrotation Xrotation
			JOINT RightLeg
			{
				OFFSET -2.215000 -6.000000 0.000000
				CHANNELS 3 Zrotation Yrotation Xrotation
				JOINT RightFoot
				{
					OFFSET -2.500000 -6.900000 0.000000
					CHANNELS 3 Zrotation Yrotation Xrotation
					JOINT RightToeBase
					{
						OFFSET -0.200000 -0.500000 1.950000
						CHANNELS 3 Zrotation Yrotation Xrotation
						End Site
						{
							OFFSET 0.000000 0.000000 0.000000
						}
					}
				}
			}
		}
	}
	JOINT LowerBack
	{
		OFFSET 0.000000 0.000000 0.000000
		CHANNELS 3 Zrotation Yrotation Xrotation
		JOINT Spine
		{
			OFFSET -0.087000 1.940000 -0.288900
			CHANNELS 3 Zrotation Yrotation Xrotation
			JOINT Spine1
			{
				OFFSET 0.000000 1.950000 0.060000
				CHANNELS 3 Zrotation Yrotation Xrotation
				JOINT Neck
				{
					OFFSET 0.000000 0.000000 0.000000
					CHANNELS 3 Zrotation Yrotation Xrotation
					JOINT Neck1
					{
						OFFSET 0.000000 1.600000 0.340000
						CHANNELS 3 Zrotation Yrotation Xrotation
						JOINT Head
						{
							OFFSET 0.000000 1.667000 -0.240000
							CHANNELS 3 Zrotation Yrotation Xrotation
							End Site
							{
								OFFSET 0.000000 0.000000 0.000000
							}
						}
					}
				}
				JOINT LeftShoulder
				{
					OFFSET 0.000000 0.000000 0.000000
					CHANNELS 3 Zrotation Yrotation Xrotation
					JOINT LeftArm
					{
						OFFSET 2.700000 1.550000 -0.730000
						CHANNELS 3 Zrotation Yrotation Xrotation
						JOINT LeftForeArm
						{
							OFFSET 5.450000 0.000000 0.000000
							CHANNELS 3 Zrotation Yrotation Xrotation
							JOINT LeftHand
							{
								OFFSET 3.450000 0.000000 0.000000
								CHANNELS 3 Zrotation Yrotation Xrotation
								JOINT LeftHandIndex1
								{
									OFFSET 0.750000 0.000000 0.000000
									CHANNELS 3 Zrotation Yrotation Xrotation
									End Site
									{
										OFFSET 0.000000 0.000000 0.000000
									}
								}
							}
						}
					}
				}
				JOINT RightShoulder
				{
					OFFSET 0.000000 0.000000 0.000000
					CHANNELS 3 Zrotation Yrotation Xrotation
					JOINT RightArm
					{
						OFFSET -2.700000 1.550000 -0.730000
						CHANNELS 3 Zrotation Yrotation Xrotation
						JOINT RightForeArm
						{
							OFFSET -5.450000 0.000000 0.000000
							CHANNELS 3 Zrotation Yrotation Xrotation
							JOINT RightHand
							{
								OFFSET -3.450000 0.000000 0.000000
								CHANNELS 3 Zrotation Yrotation Xrotation
								JOINT RightHandIndex1
								{
									OFFSET -0.750000 0.000000 0.000000
									CHANNELS 3 Zrotation Yrotation Xrotation
									End Site
									{
										OFFSET 0.000000 0.000000 0.000000
									}
								}
							}
						}
					}
				}
			}
		}
	}
}
MOTION
Frames: 14
Frame Time: 0.016667
5.665580 16.521260 -2.248210 -179.508781 19.966853 -176.157112 -15.084837 12.759898 2.920549 -3.736132 -1.287334 -7.849071 -7.322969 7.194579 22.072508 -0.284455 5.080049 2.838958 0.228700 0.032330 0.309650 18.398192 -10.353456 3.818913 -6.152681 3.170308 -38.545639 9.319438 -3.836108 9.989474 0.144162 -2.030230 3.408787 0.167600 0.221310 0.191010 -3.769885 -0.642755 -7.748427 12.082700 -3.882319 11.465611 1.260979 -4.388204 12.740045 3.793673 6.185613 -14.295209 10.377822 -8.780350 28.034511 -4.452940 -3.665560 -7.554200 -10.935872 -27.771748 8.366794 -52.880844 -19.716817 0.572283 16.744112 -8.693999 -2.957670 -3.928862 3.067103 0.279420 0.175340 -0.056840 0.019480 3.088909 23.898181 10.413018 53.804069 11.510568 -1.133195 -16.935513 -7.905902 1.208865 2.641865 -1.663681 -0.228060 0.188810 0.065400 -0.158030 
5.762870 16.309160 -2.413380 -179.906282 21.140262 -176.286218 -15.135142 12.758380 2.880180 -4.158867 -1.300937 -7.051540 -6.604113 7.562795 25.031161 -0.151618 5.467896 2.709981 0.187420 -0.005750 0.259100 18.385447 -10.095832 4.043515 -6.616845 3.427066 -41.990747 9.445354 -3.757895 9.779298 0.168994 -1.956688 3.444793 0.127840 0.243430 0.194300 -3.691399 -0.895594 -7.850294 11.041731 -3.939308 11.954456 0.980681 -4.208829 11.466274 3.709503 5.846270 -13.832904 9.595556 -8.271229 28.204757 -3.871760 -3.612770 -6.831490 -12.637518 -26.443030 8.018697 -53.983565 -18.536252 0.074997 16.679580 -8.913515 -2.945442 -3.939079 3.070122 0.257560 0.184320 -0.070740 0.022720 4.927822 22.842865 9.993982 54.034929 10.326256 -2.206246 -18.540928 -6.867568 1.035624 2.639376 -1.667258 -0.214550 0.175620 0.081130 -0.136450 
5.872190 16.135150 -2.573830 179.494346 21.543691 -176.694406 -15.242638 12.809363 2.849750 -4.413413 -1.447653 -6.334197 -6.010519 7.867203 27.711829 -0.078739 5.895167 2.557229 0.187170 -0.003270 0.237150 18.329086 -9.777843 4.185799 -6.751173 3.448036 -45.031957 8.979786 -3.613747 9.708221 0.187405 -1.877683 3.445443 0.144470 0.266000 0.189230 -3.468745 -1.411882 -7.911958 8.778462 -4.201670 12.254625 2.155296 -4.789310 11.367931 3.030583 5.440508 -13.505325 8.597803 -7.867414 28.001856 -2.827180 -4.152820 -6.975000 -13.646772 -26.706709 7.430781 -53.342378 -19.832262 2.579045 14.767500 -0.585804 -1.111117 -4.039321 3.104084 0.244530 0.182740 -0.091640 0.022660 7.442738 23.070221 10.010300 51.854070 9.121082 -2.728417 -18.815568 -7.093198 1.017886 2.652498 -1.670486 -0.221440 0.187740 0.099720 -0.123330 
5.980400 16.003430 -2.748640 179.052586 22.909661 -177.434085 -15.323945 12.873585 2.874895 -4.625682 -1.353804 -4.974267 -5.973391 8.427269 30.134360 0.018736 6.363710 2.372582 0.189650 -0.005960 0.288820 18.270887 -9.540280 4.320552 -6.603328 3.709105 -46.914522 8.839354 -3.512546 9.377988 0.170342 -1.755662 3.476089 0.129760 0.206850 0.194640 -3.257769 -1.800060 -8.056587 7.464278 -4.210599 13.503886 1.690881 -4.708412 10.567797 3.793307 5.274505 -13.250572 8.160392 -6.726638 29.297928 -3.998200 -2.433650 -8.193150 -15.247004 -25.726253 7.187173 -52.662414 -18.400694 2.470422 14.416874 1.970684 -0.577831 -4.063929 3.051428 0.298390 0.157100 -0.041440 -0.012570 7.640498 22.493743 9.670254 52.283928 9.092360 -3.199579 -19.274362 -7.323813 1.109861 2.658723 -1.624990 -0.220710 0.176820 0.099140 -0.162450 
6.072600 15.876350 -2.892590 178.424913 26.361003 -177.115127 -15.376110 12.695524 2.845140 -5.794807 -0.801709 -4.251760 -6.478135 8.924323 30.723281 0.096529 6.581097 2.313600 0.172720 -0.008750 0.241150 18.296785 -9.213562 4.641942 -5.805201 5.171838 -50.893368 9.110627 -3.576097 10.767997 0.189826 -1.735118 3.492580 0.133060 0.259240 0.199170 -3.274189 -1.827503 -8.123249 6.501325 -3.740807 13.717213 1.604547 -4.079421 9.825175 3.562758 4.216870 -12.528602 6.453952 -5.176395 28.287308 -3.084130 -1.911250 -8.232250 -14.708248 -23.191689 6.581231 -53.617575 -16.764968 2.076529 15.075496 1.831803 -0.535646 -4.104710 3.047703 0.269900 0.184190 -0.067860 0.000780 7.717178 21.020736 8.962698 50.345016 9.952075 -2.465143 -17.817972 -6.924485 0.997179 2.661858 -1.585418 -0.222430 0.194610 0.119380 -0.137320 
6.199980 15.774610 -3.068570 178.024948 27.746748 -178.335753 -15.408781 12.741004 2.841962 -6.046910 0.185028 -1.375737 -5.905306 8.954846 30.525142 0.243688 6.536996 2.324957 0.282460 0.152050 0.267020 18.274800 -9.129831 4.740239 -5.554242 5.695067 -51.544441 9.933160 -3.716447 12.030071 0.117260 -1.764187 3.475946 0.170790 0.163050 0.172050 -3.190773 -1.944509 -8.181162 5.382978 -3.286547 14.946659 1.858547 -3.684148 10.095954 3.218470 3.558583 -12.893367 5.275994 -4.724222 29.102283 -0.705040 -2.431710 -9.886230 -13.146171 -22.932329 6.736525 -53.234164 -16.028716 2.084480 13.735153 3.317978 -0.086857 -3.968479 3.124122 0.279970 0.081270 0.010060 0.055970 6.889707 21.575973 9.504098 49.437352 9.455287 -2.497173 -17.145588 -7.467945 1.126518 2.735688 -1.609684 -0.139720 0.158130 0.015550 -0.094560 
6.330450 15.699760 -3.282690 178.155842 27.807264 -178.605929 -15.403895 12.801053 2.827652 -5.869362 1.020852 1.210249 -4.881396 8.751641 30.161740 0.307356 6.539475 2.322385 0.281810 0.162170 0.243400 18.281297 -9.103875 4.796045 -5.724983 5.990358 -51.813820 10.536454 -4.098543 13.872698 0.087646 -1.924306 3.416350 0.153540 0.147760 0.179620 -3.198032 -2.017579 -8.191542 5.515812 -3.504172 15.337946 1.318167 -3.714529 9.061723 3.373529 2.841383 -12.595570 4.103179 -3.515612 29.105194 0.349410 -1.907230 -10.429400 -12.145518 -20.771212 6.429540 -54.282717 -14.500374 1.384022 15.398426 3.405552 -0.012917 -3.949762 3.155906 0.283930 0.058750 0.027020 0.058750 5.585136 20.069534 9.043804 50.118975 9.595910 -2.801362 -18.084760 -8.760454 1.465504 2.782133 -1.612037 -0.111700 0.133660 0.015760 -0.079590 
6.414790 15.660450 -3.498720 179.174835 26.239775 179.539577 -15.292315 12.850517 2.855718 -5.231016 1.977863 5.513939 -1.868733 7.787566 29.620683 0.318065 6.508830 2.333880 0.271340 0.151110 0.228060 18.346031 -9.397360 4.688161 -7.250136 5.396275 -49.695456 11.998811 -5.227762 17.689833 0.020729 -2.539009 3.170282 0.150300 0.139150 0.190180 -3.451143 -1.661135 -8.122108 8.655645 -4.468932 16.256311 -1.395009 -3.997900 12.328288 4.438137 1.590245 -13.986099 2.298193 -2.769281 28.983848 -0.014080 -1.916360 -10.412550 -7.851022 -23.272912 7.485785 -56.172337 -14.950488 0.508658 18.032854 4.092219 0.045321 -3.924905 3.237239 0.285480 0.050780 0.030260 0.047570 -0.888682 23.935307 10.925356 56.066256 10.892150 -3.923562 -20.061047 -8.890151 1.364807 2.755744 -1.694014 -0.106370 0.119550 0.035210 -0.076930 
6.536460 15.651010 -3.714130 -178.428855 27.168367 -179.822031 -15.229169 12.902326 2.782579 -3.327301 2.105978 7.645353 -1.282801 7.845244 29.553472 0.394207 6.624527 2.336810 0.237960 0.104250 0.241470 18.398515 -9.338503 4.905698 -7.116828 7.126504 -49.780660 14.175276 -6.924525 23.912122 -0.112093 -3.409333 2.889116 0.104890 0.127140 0.160600 -3.606929 -1.692758 -8.219730 12.045888 -5.160271 16.951455 -2.185622 -4.026810 11.588645 4.948461 0.341700 -14.566541 0.202955 -2.579845 29.170721 -1.261400 -1.754320 -10.213030 -8.654065 -21.865403 7.561069 -54.807565 -11.602907 -0.990382 19.557809 2.904407 -0.073059 -3.891214 3.175296 0.301170 0.031690 0.039590 0.045760 -1.253675 23.728458 11.586289 51.734114 9.267294 -3.340301 -16.766354 -9.469687 1.517104 2.827600 -1.579524 -0.120900 0.133150 0.016670 -0.081750 
6.718820 15.636180 -3.965980 -176.385750 27.333459 -177.870584 -15.222896 13.028379 2.631446 -0.822936 1.933407 9.058335 -1.222872 7.773087 27.718546 0.428309 6.481350 2.404259 0.226130 0.060150 0.238490 18.416841 -9.007550 5.230037 -8.500817 8.575027 -50.432858 19.919343 -9.332051 27.190036 -0.347368 -4.482570 2.546069 0.032000 0.082680 0.151030 -3.631754 -2.241418 -8.415185 14.054416 -5.852322 16.865389 -2.109302 -4.011778 6.299743 4.351819 0.241629 -13.697969 -0.455165 -2.472691 30.391408 -0.079460 -1.716890 -10.630030 -11.335404 -16.509471 6.793429 -48.779621 -6.588846 -1.384291 16.183859 0.392062 -0.258579 -3.832196 3.081216 0.360660 -0.027120 0.068930 0.054790 2.205409 17.849441 10.021909 43.917506 6.225987 -3.759077 -18.168631 -5.129106 0.791566 2.827235 -1.492275 -0.106100 0.094030 -0.007370 -0.088900 
6.891460 15.640700 -4.219940 -175.483464 25.696486 -177.684194 -15.225038 13.177406 2.584100 1.079215 1.893009 11.385476 -0.015743 7.404937 26.467963 0.503172 6.476215 2.450462 0.155720 -0.021090 0.179730 18.400385 -8.918435 5.267658 -9.921032 8.555498 -49.323724 23.073486 -11.246132 29.424693 -0.487230 -5.323130 2.291380 -0.034510 0.112750 0.137150 -3.577751 -2.609857 -8.486438 14.965754 -6.270971 16.307493 -1.994294 -4.160546 4.391199 4.176874 -0.675280 -14.028421 -2.327168 -2.702340 30.951190 -0.211940 -2.592500 -8.820100 -10.459717 -14.172355 6.396365 -46.214301 -4.476747 -1.328403 16.152226 3.645480 0.486633 -3.889383 3.048078 0.337910 -0.021170 0.042980 0.058480 1.585154 16.162021 10.560549 39.685565 3.167583 -3.710135 -15.863737 -2.696695 0.503208 2.836605 -1.399871 -0.107630 0.088880 0.008240 -0.063520 
7.046850 15.667410 -4.460600 -175.351389 24.699879 -178.440560 -15.220497 13.313128 2.603097 2.293137 1.871460 13.488430 0.595681 7.496139 26.876398 0.640050 6.700826 2.413803 0.108960 -0.098480 0.133790 18.385137 -8.845061 5.263288 -11.282188 8.451459 -47.773317 25.532681 -13.071532 31.731171 -0.631532 -6.130872 2.033456 -0.098940 0.133600 0.123960 -3.549213 -2.995245 -8.566039 15.655884 -6.882458 16.121489 -2.630558 -4.350585 3.774285 4.025319 -2.303881 -15.285798 -5.578012 -1.613115 32.212262 0.358090 -3.049370 -5.735050 -10.457602 -13.973252 7.164966 -41.923087 -0.881649 -1.843048 15.423341 3.888765 0.617158 -3.860409 3.075901 0.319170 -0.033570 0.010810 0.074230 1.955652 17.268383 11.781508 34.754592 0.738950 -3.609200 -14.211438 -1.022474 0.308714 2.868484 -1.372895 -0.105230 0.054550 0.007060 -0.038070 
7.235210 15.722290 -4.716800 -175.659840 23.376944 -178.015205 -15.225214 13.603281 2.629200 3.665384 1.616088 13.868398 0.541139 7.561029 26.207233 0.738177 6.684488 2.437982 0.025490 -0.191830 0.034340 18.334504 -8.742117 5.252675 -12.172006 8.068065 -46.469577 27.254526 -14.161300 32.178410 -0.687989 -6.480817 1.954764 -0.191180 0.152210 0.102790 -3.415135 -3.701754 -8.717059 15.676054 -7.049497 15.852839 -2.426486 -3.881465 -2.625834 3.567058 -4.179281 -14.970234 -9.978064 -0.588746 34.698833 1.688070 -4.409490 -2.808710 -11.660478 -9.043444 5.909738 -36.272643 2.660379 -2.294865 14.526655 1.389326 0.355289 -3.826718 3.029578 0.299980 -0.053270 -0.014230 0.077160 4.386019 13.795294 11.501648 28.872402 -5.980393 -5.189673 -13.949118 10.978069 -0.769055 2.700685 -1.291070 -0.085790 0.026520 0.034970 0.001840 
7.396490 15.787570 -4.937910 -175.670632 22.196125 -177.501052 -15.181250 13.667977 2.585244 4.520822 1.378653 13.411671 0.965135 7.462581 26.409032 0.749642 6.738600 2.468024 -0.115580 -0.357570 -0.093190 18.336686 -8.909910 5.192609 -11.927602 8.175787 -44.800239 27.574735 -14.634372 32.630020 -0.657447 -6.676397 1.928615 -0.270980 0.284860 0.099820 -3.450634 -3.543124 -8.718793 15.264642 -6.173912 14.239353 -2.690763 -3.142287 -5.069069 3.364456 -4.056312 -14.690841 -9.825459 -0.503835 35.408056 2.278730 -5.437450 1.520380 -12.081580 -7.029716 5.233899 -32.950105 5.001434 -3.563427 22.000792 -3.185146 -0.240946 -3.883337 3.023324 0.242740 0.027770 -0.107590 0.075770 5.165083 11.873796 11.401113 24.028022 -9.232551 -4.964008 -11.778023 14.606422 -0.629279 2.636887 -1.238733 -0.132380 0.054370 0.119400 0.034240 
